<svg width="829" height="1590" viewBox="0 0 829 1590" fill="none" xmlns="http://www.w3.org/2000/svg">
<path d="M310.23 -451.031C481.342 -451.031 523.275 -694.583 523.275 6.73503C523.275 708.054 481.342 2088.67 310.23 2088.67C139.119 2088.67 0.405493 1520.14 0.405462 818.818C0.405431 117.5 139.119 -451.031 310.23 -451.031Z" fill="#E9DEA6"/>
<path d="M196.597 -42.5031C296.413 -42.5032 320.874 -228.749 320.874 307.553C320.874 843.856 404.525 2018.39 304.71 2018.39C204.895 2018.39 15.8664 1464.86 15.8664 928.558C15.8664 392.256 96.7824 -42.5031 196.597 -42.5031Z" fill="#CA5355"/>
<path d="M245.792 -103.627C345.607 -103.627 1407.37 -1040.8 831.796 1837.09C831.796 2373.39 453.72 1957.27 353.904 1957.27C254.089 1957.27 65.0611 1403.74 65.0611 867.434C65.0611 331.132 145.977 -103.627 245.792 -103.627Z" fill="#F36A22"/>
<path d="M385.332 469.925L839.062 360.965L852.167 358.654L846.994 340.262L826.074 309.204L294.514 217.617L259.599 260.45L827.725 318.565L829.706 329.798L233.714 299.761L194.172 349.202L260.571 397.336L832.016 342.903L837.741 353.476L338.094 431.926L385.332 469.925Z" stroke="#F4EFD3" stroke-width="3.8021"/>
<path d="M378.863 -17.8844L820.143 308.604L832.135 318.666L844.796 300.097L856.966 257.761L537.558 -290.51L472.557 -289.585L849.779 266.326L841.154 276.605L417.559 -283.186L343.106 -281.434L349.938 -185.202L831.091 288.597L825.893 301.751L377.386 -89.1869L378.863 -17.8844Z" stroke="#F4EFD3" stroke-width="4.21669"/>
<path d="M463.524 1487.64L823.479 1221.32L833.261 1213.11L843.589 1228.26L853.516 1262.79L592.974 1710.02L539.952 1709.27L847.653 1255.81L840.618 1247.42L495.089 1704.05L434.357 1702.62L439.93 1624.12L832.41 1237.64L828.169 1226.91L462.32 1545.8L463.524 1487.64Z" stroke="#F4EFD3" stroke-width="4.21669"/>
<path d="M275.071 1546.85C275.071 1548.95 276.777 1550.66 278.878 1550.66L301.719 1550.66C303.82 1550.66 305.525 1548.95 305.525 1546.85C305.525 1544.75 303.82 1543.04 301.719 1543.04L278.878 1543.04C276.777 1543.04 275.071 1544.75 275.071 1546.85ZM292.32 1577.54C292.571 1578.48 293.195 1579.28 294.105 1579.8C295.925 1580.85 298.289 1580.2 299.339 1578.38L310.76 1558.63C311.81 1556.81 311.152 1554.45 309.332 1553.4C307.512 1552.34 305.148 1553 304.098 1554.82L292.678 1574.57C292.152 1575.48 292.069 1576.6 292.32 1577.54ZM292.32 1516.16C292.069 1517.1 292.152 1518.22 292.678 1519.13L304.098 1538.88C305.148 1540.7 307.512 1541.36 309.332 1540.31C311.152 1539.26 311.81 1536.9 310.76 1535.07L299.339 1515.33C298.289 1513.5 295.925 1512.85 294.105 1513.9C293.195 1514.43 292.571 1515.22 292.32 1516.16ZM315.16 1555.77C314.909 1556.71 314.993 1557.72 315.518 1558.63L326.938 1578.38C327.989 1580.2 330.353 1580.85 332.172 1579.8C333.992 1578.75 334.651 1576.39 333.6 1574.57L322.18 1554.82C321.129 1553 318.765 1552.46 316.946 1553.51C316.036 1554.04 315.411 1554.83 315.16 1555.77ZM315.16 1537.93C315.411 1538.87 316.036 1539.66 316.946 1540.19C318.765 1541.24 321.129 1540.58 322.18 1538.76L333.6 1519.13C334.651 1517.31 333.992 1514.95 332.172 1513.9C330.353 1512.85 327.989 1513.5 326.938 1515.33L315.636 1534.96C315.111 1535.87 314.909 1536.99 315.16 1537.93ZM320.752 1546.85C320.752 1548.95 322.458 1550.66 324.559 1550.66L347.399 1550.66C349.501 1550.66 351.206 1548.95 351.206 1546.85C351.206 1544.75 349.501 1543.04 347.399 1543.04L324.559 1543.04C322.458 1543.04 320.752 1544.75 320.752 1546.85Z" fill="white"/>
<path d="M353.2 1444.93C353.2 1445.71 353.83 1446.34 354.606 1446.34L364.796 1446.34L359.701 1455.16C359.507 1455.5 359.476 1455.91 359.569 1456.26C359.661 1456.61 359.892 1456.9 360.228 1457.1C360.9 1457.48 361.772 1457.24 362.16 1456.57L367.256 1447.79L372.351 1456.57C372.739 1457.24 373.612 1457.48 374.283 1457.1C374.955 1456.71 375.198 1455.84 374.81 1455.16L369.715 1446.34L379.906 1446.34C380.682 1446.34 381.311 1445.71 381.311 1444.93C381.311 1444.15 380.682 1443.52 379.906 1443.52L369.715 1443.52L374.81 1434.7C375.198 1434.02 374.955 1433.15 374.283 1432.76C373.612 1432.38 372.739 1432.62 372.351 1433.29L367.256 1442.08L362.16 1433.29C361.772 1432.62 360.9 1432.38 360.228 1432.76C359.892 1432.96 359.661 1433.25 359.569 1433.6C359.476 1433.95 359.507 1434.36 359.701 1434.7L364.796 1443.52L354.606 1443.52C353.83 1443.52 353.2 1444.15 353.2 1444.93Z" fill="white"/>
<path d="M248.016 494.775C248.016 496.004 249.013 497.001 250.242 497.001L266.377 497.001L258.309 510.979C258.002 511.511 257.953 512.168 258.1 512.717C258.247 513.269 258.612 513.732 259.144 514.039C260.208 514.653 261.59 514.271 262.204 513.205L270.271 499.295L278.339 513.205C278.953 514.271 280.335 514.653 281.399 514.039C282.462 513.425 282.847 512.045 282.233 510.979L274.166 497.001L290.3 497.001C291.529 497.001 292.526 496.004 292.526 494.775C292.526 493.547 291.529 492.55 290.3 492.55L274.166 492.55L282.233 478.572C282.847 477.506 282.462 476.126 281.399 475.512C280.335 474.897 278.953 475.28 278.339 476.346L270.271 490.255L262.204 476.346C261.59 475.28 260.208 474.897 259.144 475.512C258.612 475.819 258.247 476.282 258.1 476.834C257.953 477.383 258.002 478.04 258.309 478.572L266.377 492.55L250.242 492.55C249.013 492.55 248.016 493.547 248.016 494.775Z" fill="white"/>
</svg>
