<svg width="1920" height="828" viewBox="0 0 1920 828" fill="none" xmlns="http://www.w3.org/2000/svg">
<path d="M2371.03 309.948C2371.03 481.059 2614.58 522.993 1913.27 522.993C1211.95 522.993 -168.667 481.059 -168.667 309.948C-168.667 138.836 399.863 0.122925 1101.18 0.122925C1802.5 0.122925 2371.03 138.836 2371.03 309.948Z" fill="#E9DEA6"/>
<path d="M1962.5 196.315C1962.5 296.13 2148.75 320.591 1612.45 320.591C1076.14 320.591 -98.3896 404.242 -98.3896 304.427C-98.3896 204.612 455.139 15.5839 991.442 15.5839C1527.74 15.5839 1962.5 96.4999 1962.5 196.315Z" fill="#CA5355"/>
<path d="M2023.63 245.51C2023.63 345.325 2960.8 1407.09 82.9094 831.514C-453.393 831.514 -37.2662 453.437 -37.2662 353.622C-37.2662 253.807 516.263 64.7786 1052.57 64.7786C1588.87 64.7786 2023.63 145.695 2023.63 245.51Z" fill="#F36A22"/>
<path d="M1450.07 385.05L1559.04 838.779L1561.35 851.885L1579.74 846.711L1610.8 825.792L1702.38 294.232L1659.55 259.316L1601.43 827.442L1590.2 829.423L1620.24 233.431L1570.8 193.89L1522.66 260.288L1577.1 831.734L1566.52 837.459L1488.07 337.811L1450.07 385.05Z" stroke="#F4EFD3" stroke-width="3.8021"/>
<path d="M1937.88 378.58L1611.4 819.86L1601.33 831.852L1619.9 844.514L1662.24 856.684L2210.51 537.276L2209.59 472.275L1653.67 849.496L1643.39 840.871L2203.19 417.277L2201.43 342.823L2105.2 349.655L1631.4 830.809L1618.25 825.61L2009.19 377.104L1937.88 378.58Z" stroke="#F4EFD3" stroke-width="4.21669"/>
<path d="M432.36 463.242L698.679 823.196L706.887 832.978L691.74 843.307L657.206 853.234L209.978 592.691L210.733 539.669L664.193 847.371L672.577 840.335L215.952 494.807L217.381 434.075L295.878 439.648L682.359 832.127L693.089 827.887L374.199 462.038L432.36 463.242Z" stroke="#F4EFD3" stroke-width="4.21669"/>
<path d="M373.149 274.789C371.047 274.789 369.342 276.494 369.342 278.596V301.436C369.342 303.537 371.047 305.243 373.149 305.243C375.25 305.243 376.955 303.537 376.955 301.436V278.596C376.955 276.494 375.25 274.789 373.149 274.789ZM342.457 292.037C341.516 292.288 340.722 292.913 340.197 293.822C339.145 295.642 339.803 298.006 341.624 299.057L361.371 310.477C363.192 311.528 365.554 310.869 366.605 309.049C367.656 307.23 367.001 304.866 365.178 303.815L345.431 292.395C344.521 291.87 343.398 291.786 342.457 292.037ZM403.839 292.037C402.898 291.786 401.775 291.87 400.865 292.395L381.12 303.815C379.297 304.866 378.642 307.23 379.692 309.049C380.743 310.869 383.103 311.528 384.927 310.477L404.672 299.057C406.496 298.006 407.15 295.642 406.1 293.822C405.574 292.913 404.783 292.288 403.839 292.037ZM364.226 314.878C363.285 314.626 362.282 314.71 361.371 315.235L341.624 326.656C339.804 327.706 339.145 330.07 340.197 331.89C341.248 333.709 343.61 334.368 345.431 333.317L365.178 321.897C367.001 320.847 367.538 318.483 366.487 316.663C365.962 315.753 365.168 315.129 364.226 314.878ZM382.072 314.878C381.131 315.129 380.336 315.753 379.81 316.663C378.76 318.483 379.418 320.847 381.238 321.897L400.865 333.317C402.689 334.368 405.049 333.709 406.1 331.89C407.15 330.07 406.496 327.706 404.672 326.656L385.045 315.353C384.135 314.828 383.012 314.626 382.072 314.878ZM373.149 320.47C371.047 320.47 369.342 322.175 369.342 324.276V347.117C369.342 349.218 371.047 350.924 373.149 350.924C375.25 350.924 376.955 349.218 376.955 347.117V324.276C376.955 322.175 375.25 320.47 373.149 320.47Z" fill="white"/>
<path d="M475.07 352.917C474.294 352.917 473.664 353.547 473.664 354.323V364.513L464.836 359.418C464.5 359.224 464.085 359.193 463.738 359.286C463.389 359.379 463.097 359.609 462.903 359.945C462.515 360.617 462.757 361.49 463.43 361.878L472.215 366.973L463.43 372.068C462.757 372.456 462.515 373.329 462.903 374.001C463.291 374.673 464.162 374.916 464.836 374.528L473.664 369.433V379.623C473.664 380.399 474.294 381.029 475.07 381.029C475.845 381.029 476.475 380.399 476.475 379.623V369.433L485.304 374.528C485.977 374.916 486.848 374.673 487.236 374.001C487.624 373.329 487.382 372.456 486.709 372.068L477.924 366.973L486.709 361.878C487.382 361.49 487.624 360.617 487.236 359.945C487.042 359.609 486.75 359.379 486.401 359.286C486.054 359.193 485.639 359.224 485.304 359.418L476.475 364.513V354.323C476.475 353.547 475.845 352.917 475.07 352.917Z" fill="white"/>
<path d="M1425.22 247.734C1424 247.734 1423 248.731 1423 249.959V266.094L1409.02 258.027C1408.49 257.719 1407.83 257.671 1407.28 257.817C1406.73 257.964 1406.27 258.329 1405.96 258.861C1405.35 259.925 1405.73 261.307 1406.8 261.921L1420.7 269.989L1406.8 278.056C1405.73 278.67 1405.35 280.052 1405.96 281.116C1406.58 282.18 1407.95 282.565 1409.02 281.95L1423 273.883V290.018C1423 291.246 1424 292.243 1425.22 292.243C1426.45 292.243 1427.45 291.246 1427.45 290.018V273.883L1441.43 281.95C1442.49 282.565 1443.87 282.18 1444.49 281.116C1445.1 280.052 1444.72 278.67 1443.65 278.056L1429.74 269.989L1443.65 261.921C1444.72 261.307 1445.1 259.925 1444.49 258.861C1444.18 258.329 1443.72 257.964 1443.17 257.817C1442.62 257.671 1441.96 257.719 1441.43 258.027L1427.45 266.094V249.959C1427.45 248.731 1426.45 247.734 1425.22 247.734Z" fill="white"/>
</svg>
