<svg width="556" height="408" viewBox="0 0 556 408" fill="none" xmlns="http://www.w3.org/2000/svg">
<g filter="url(#filter0_ddd_6_3479)">
<path d="M41.2988 268.534C216.079 98.8887 243.78 134.028 336.139 153.993C340.38 154.909 341.827 160.372 338.846 163.525C317.757 185.833 344.03 187.383 338.763 214.291C338.387 216.215 336.825 217.661 334.905 218.055L45.8057 277.36C40.757 278.396 37.6006 272.124 41.2988 268.534Z" fill="#BA83F2"/>
<path d="M43.2442 264.792C204.745 160.644 253.405 177.579 364.249 209.324C368.218 210.461 369.307 215.529 365.919 217.888C334.495 239.765 305.855 230.796 296.34 256.851C295.572 258.953 293.7 260.529 291.465 260.653L46.3138 274.185C41.0435 274.476 38.8083 267.653 43.2442 264.792Z" fill="#8C3FD9"/>
<path d="M37.8146 268.607C225.611 194.816 310.469 216.153 417.491 262.434C421.296 264.079 421.314 269.066 417.499 271.022C416.938 271.309 416.406 271.578 415.902 271.831C418.628 271.945 420.215 274.143 416.77 281.535C415.909 283.383 413.835 284.544 411.683 284.505L39.3459 277.875C33.6283 277.773 32.4611 270.71 37.8146 268.607Z" fill="#BA83F2"/>
<path d="M408.967 131.338C415.56 124.312 427.359 128.607 427.893 138.227L430.421 183.761C430.665 188.138 433.493 191.948 437.612 193.447L484.688 210.581C495.327 214.454 493.817 229.953 482.63 231.698L443.308 237.835C437.746 238.703 433.747 243.646 434.059 249.266L436.091 285.85C436.669 296.257 423.758 301.514 416.902 293.663L381.137 252.708C378.664 249.876 374.912 248.51 371.197 249.09L317.474 257.474C307.175 259.081 300.664 246.756 307.796 239.155L332.868 212.436C336.72 208.331 336.834 201.975 333.131 197.734L306.953 167.757C299.506 159.229 308.311 146.385 318.951 150.258L366.026 167.392C370.145 168.891 374.762 167.791 377.761 164.594L408.967 131.338Z" fill="white"/>
<path d="M409.894 134.28C416.487 127.254 428.286 131.548 428.82 141.168L431.23 184.569C431.473 188.946 434.302 192.756 438.421 194.255L482.939 210.458C493.578 214.331 492.068 229.83 480.881 231.576L444.043 237.325C438.481 238.193 434.483 243.135 434.795 248.756L436.708 283.206C437.286 293.613 424.375 298.87 417.519 291.019L383.408 251.957C380.935 249.126 377.183 247.76 373.468 248.339L322.229 256.336C311.931 257.943 305.42 245.618 312.552 238.017L336.162 212.856C340.013 208.751 340.127 202.395 336.424 198.155L311.9 170.072C304.453 161.543 313.259 148.7 323.898 152.572L368.416 168.775C372.535 170.275 377.151 169.174 380.151 165.977L409.894 134.28Z" fill="#DFCDF2"/>
</g>
<defs>
<filter id="filter0_ddd_6_3479" x="31.7785" y="125.273" width="463.226" height="175.014" filterUnits="userSpaceOnUse" color-interpolation-filters="sRGB">
<feFlood flood-opacity="0" result="BackgroundImageFix"/>
<feColorMatrix in="SourceAlpha" type="matrix" values="0 0 0 0 0 0 0 0 0 0 0 0 0 0 0 0 0 0 127 0" result="hardAlpha"/>
<feOffset dx="-2.5888" dy="-2.5888"/>
<feComposite in2="hardAlpha" operator="out"/>
<feColorMatrix type="matrix" values="0 0 0 0 1 0 0 0 0 1 0 0 0 0 1 0 0 0 1 0"/>
<feBlend mode="normal" in2="BackgroundImageFix" result="effect1_dropShadow_6_3479"/>
<feColorMatrix in="SourceAlpha" type="matrix" values="0 0 0 0 0 0 0 0 0 0 0 0 0 0 0 0 0 0 127 0" result="hardAlpha"/>
<feOffset dy="2.84768"/>
<feComposite in2="hardAlpha" operator="out"/>
<feColorMatrix type="matrix" values="0 0 0 0 1 0 0 0 0 1 0 0 0 0 1 0 0 0 1 0"/>
<feBlend mode="normal" in2="effect1_dropShadow_6_3479" result="effect2_dropShadow_6_3479"/>
<feColorMatrix in="SourceAlpha" type="matrix" values="0 0 0 0 0 0 0 0 0 0 0 0 0 0 0 0 0 0 127 0" result="hardAlpha"/>
<feOffset dx="3.10656" dy="1.03552"/>
<feComposite in2="hardAlpha" operator="out"/>
<feColorMatrix type="matrix" values="0 0 0 0 1 0 0 0 0 1 0 0 0 0 1 0 0 0 1 0"/>
<feBlend mode="normal" in2="effect2_dropShadow_6_3479" result="effect3_dropShadow_6_3479"/>
<feBlend mode="normal" in="SourceGraphic" in2="effect3_dropShadow_6_3479" result="shape"/>
</filter>
</defs>
</svg>
