<svg width="556" height="481" viewBox="0 0 556 481" fill="none" xmlns="http://www.w3.org/2000/svg">
<g filter="url(#filter0_ddd_6_3469)">
<path d="M514.356 268.534C339.576 98.8887 311.875 134.028 219.516 153.993C215.275 154.909 213.828 160.372 216.809 163.525C237.898 185.833 211.625 187.383 216.892 214.291C217.268 216.215 218.83 217.661 220.75 218.055L509.849 277.36C514.898 278.396 518.054 272.124 514.356 268.534Z" fill="#FEB048"/>
<path d="M512.411 264.792C350.91 160.644 302.25 177.579 191.405 209.324C187.437 210.461 186.348 215.529 189.736 217.888C221.16 239.765 249.799 230.796 259.315 256.851C260.083 258.953 261.955 260.529 264.19 260.653L509.341 274.185C514.611 274.476 516.847 267.653 512.411 264.792Z" fill="#D25827"/>
<path d="M517.84 268.607C330.044 194.816 245.186 216.153 138.164 262.434C134.359 264.079 134.341 269.066 138.156 271.022C138.717 271.309 139.249 271.578 139.753 271.831C137.027 271.945 135.44 274.143 138.885 281.535C139.746 283.383 141.82 284.544 143.971 284.505L516.309 277.875C522.027 277.773 523.194 270.71 517.84 268.607Z" fill="#F2A343"/>
<path d="M146.688 131.338C140.095 124.312 128.296 128.607 127.762 138.227L125.233 183.761C124.99 188.138 122.162 191.948 118.042 193.447L70.9673 210.581C60.3277 214.454 61.8378 229.953 73.0247 231.698L112.347 237.835C117.909 238.703 121.908 243.646 121.596 249.266L119.564 285.85C118.986 296.257 131.897 301.514 138.753 293.663L174.518 252.708C176.991 249.876 180.743 248.51 184.458 249.09L238.181 257.474C248.48 259.081 254.991 246.756 247.859 239.155L222.787 212.436C218.935 208.331 218.821 201.975 222.524 197.734L248.702 167.757C256.149 159.229 247.344 146.385 236.704 150.258L189.629 167.392C185.51 168.891 180.893 167.791 177.894 164.594L146.688 131.338Z" fill="white"/>
<path d="M145.761 134.28C139.168 127.254 127.369 131.548 126.835 141.168L124.425 184.569C124.182 188.946 121.353 192.756 117.234 194.255L72.7161 210.458C62.0766 214.331 63.5866 229.83 74.7735 231.576L111.612 237.325C117.174 238.193 121.172 243.135 120.86 248.756L118.947 283.206C118.369 293.613 131.28 298.87 138.136 291.019L172.247 251.957C174.72 249.126 178.472 247.76 182.187 248.339L233.426 256.336C243.724 257.943 250.235 245.618 243.103 238.017L219.493 212.856C215.641 208.751 215.528 202.395 219.23 198.155L243.755 170.072C251.202 161.543 242.396 148.7 231.757 152.572L187.239 168.775C183.12 170.275 178.504 169.174 175.504 165.977L145.761 134.28Z" fill="#F36A22"/>
</g>
<defs>
<filter id="filter0_ddd_6_3469" x="61.1678" y="125.273" width="463.226" height="175.014" filterUnits="userSpaceOnUse" color-interpolation-filters="sRGB">
<feFlood flood-opacity="0" result="BackgroundImageFix"/>
<feColorMatrix in="SourceAlpha" type="matrix" values="0 0 0 0 0 0 0 0 0 0 0 0 0 0 0 0 0 0 127 0" result="hardAlpha"/>
<feOffset dx="-2.5888" dy="-2.5888"/>
<feComposite in2="hardAlpha" operator="out"/>
<feColorMatrix type="matrix" values="0 0 0 0 1 0 0 0 0 1 0 0 0 0 1 0 0 0 1 0"/>
<feBlend mode="normal" in2="BackgroundImageFix" result="effect1_dropShadow_6_3469"/>
<feColorMatrix in="SourceAlpha" type="matrix" values="0 0 0 0 0 0 0 0 0 0 0 0 0 0 0 0 0 0 127 0" result="hardAlpha"/>
<feOffset dy="2.84768"/>
<feComposite in2="hardAlpha" operator="out"/>
<feColorMatrix type="matrix" values="0 0 0 0 1 0 0 0 0 1 0 0 0 0 1 0 0 0 1 0"/>
<feBlend mode="normal" in2="effect1_dropShadow_6_3469" result="effect2_dropShadow_6_3469"/>
<feColorMatrix in="SourceAlpha" type="matrix" values="0 0 0 0 0 0 0 0 0 0 0 0 0 0 0 0 0 0 127 0" result="hardAlpha"/>
<feOffset dx="3.10656" dy="1.03552"/>
<feComposite in2="hardAlpha" operator="out"/>
<feColorMatrix type="matrix" values="0 0 0 0 1 0 0 0 0 1 0 0 0 0 1 0 0 0 1 0"/>
<feBlend mode="normal" in2="effect2_dropShadow_6_3469" result="effect3_dropShadow_6_3469"/>
<feBlend mode="normal" in="SourceGraphic" in2="effect3_dropShadow_6_3469" result="shape"/>
</filter>
</defs>
</svg>
