<svg width="556" height="481" viewBox="0 0 556 481" fill="none" xmlns="http://www.w3.org/2000/svg">
<g filter="url(#filter0_ddd_6_3459)">
<path d="M41.4131 268.534C216.193 98.8887 243.894 134.028 336.253 153.993C340.494 154.909 341.941 160.372 338.961 163.525C317.871 185.833 344.144 187.383 338.878 214.291C338.501 216.215 336.939 217.661 335.019 218.055L45.92 277.36C40.8712 278.396 37.7148 272.124 41.4131 268.534Z" fill="#BA83F2"/>
<path d="M43.3586 264.792C204.859 160.644 253.52 177.579 364.364 209.324C368.332 210.461 369.421 215.529 366.034 217.888C334.609 239.765 305.97 230.796 296.454 256.851C295.687 258.953 293.814 260.529 291.58 260.653L46.4282 274.185C41.1579 274.476 38.9227 267.653 43.3586 264.792Z" fill="#8C3FD9"/>
<path d="M37.9292 268.607C225.725 194.816 310.584 216.153 417.606 262.434C421.41 264.079 421.429 269.066 417.614 271.022C417.053 271.309 416.521 271.578 416.016 271.831C418.742 271.945 420.33 274.143 416.885 281.535C416.023 283.383 413.949 284.544 411.798 284.505L39.4604 277.875C33.7428 277.773 32.5756 270.71 37.9292 268.607Z" fill="#BA83F2"/>
<path d="M409.081 131.338C415.674 124.312 427.473 128.607 428.007 138.227L430.536 183.761C430.779 188.138 433.608 191.948 437.727 193.447L484.802 210.581C495.442 214.454 493.932 229.953 482.745 231.698L443.422 237.835C437.86 238.703 433.862 243.646 434.174 249.266L436.205 285.85C436.783 296.257 423.872 301.514 417.016 293.663L381.252 252.708C378.779 249.876 375.026 248.51 371.311 249.09L317.588 257.474C307.29 259.081 300.778 246.756 307.911 239.155L332.983 212.436C336.835 208.331 336.948 201.975 333.246 197.734L307.068 167.757C299.62 159.229 308.426 146.385 319.065 150.258L366.141 167.392C370.26 168.891 374.876 167.791 377.875 164.594L409.081 131.338Z" fill="white"/>
<path d="M410.009 134.28C416.601 127.254 428.4 131.548 428.934 141.168L431.345 184.569C431.588 188.946 434.416 192.756 438.536 194.255L483.053 210.458C493.693 214.331 492.183 229.83 480.996 231.576L444.158 237.325C438.596 238.193 434.597 243.135 434.909 248.756L436.822 283.206C437.4 293.613 424.489 298.87 417.633 291.019L383.523 251.957C381.05 249.126 377.297 247.76 373.582 248.339L322.344 256.336C312.045 257.943 305.534 245.618 312.666 238.017L336.276 212.856C340.128 208.751 340.241 202.395 336.539 198.155L312.015 170.072C304.567 161.543 313.373 148.7 324.012 152.572L368.53 168.775C372.649 170.275 377.265 169.174 380.265 165.977L410.009 134.28Z" fill="#DFCDF2"/>
</g>
<defs>
<filter id="filter0_ddd_6_3459" x="31.8931" y="125.273" width="463.226" height="175.014" filterUnits="userSpaceOnUse" color-interpolation-filters="sRGB">
<feFlood flood-opacity="0" result="BackgroundImageFix"/>
<feColorMatrix in="SourceAlpha" type="matrix" values="0 0 0 0 0 0 0 0 0 0 0 0 0 0 0 0 0 0 127 0" result="hardAlpha"/>
<feOffset dx="-2.5888" dy="-2.5888"/>
<feComposite in2="hardAlpha" operator="out"/>
<feColorMatrix type="matrix" values="0 0 0 0 1 0 0 0 0 1 0 0 0 0 1 0 0 0 1 0"/>
<feBlend mode="normal" in2="BackgroundImageFix" result="effect1_dropShadow_6_3459"/>
<feColorMatrix in="SourceAlpha" type="matrix" values="0 0 0 0 0 0 0 0 0 0 0 0 0 0 0 0 0 0 127 0" result="hardAlpha"/>
<feOffset dy="2.84768"/>
<feComposite in2="hardAlpha" operator="out"/>
<feColorMatrix type="matrix" values="0 0 0 0 1 0 0 0 0 1 0 0 0 0 1 0 0 0 1 0"/>
<feBlend mode="normal" in2="effect1_dropShadow_6_3459" result="effect2_dropShadow_6_3459"/>
<feColorMatrix in="SourceAlpha" type="matrix" values="0 0 0 0 0 0 0 0 0 0 0 0 0 0 0 0 0 0 127 0" result="hardAlpha"/>
<feOffset dx="3.10656" dy="1.03552"/>
<feComposite in2="hardAlpha" operator="out"/>
<feColorMatrix type="matrix" values="0 0 0 0 1 0 0 0 0 1 0 0 0 0 1 0 0 0 1 0"/>
<feBlend mode="normal" in2="effect2_dropShadow_6_3459" result="effect3_dropShadow_6_3459"/>
<feBlend mode="normal" in="SourceGraphic" in2="effect3_dropShadow_6_3459" result="shape"/>
</filter>
</defs>
</svg>
